<?xml version="1.0" encoding="utf-8"?>
<!-- Generator: Adobe Illustrator 16.0.0, SVG Export Plug-In . SVG Version: 6.00 Build 0)  -->
<!DOCTYPE svg PUBLIC "-//W3C//DTD SVG 1.1//EN" "http://www.w3.org/Graphics/SVG/1.1/DTD/svg11.dtd">
<svg version="1.1" id="Capa_1" xmlns="http://www.w3.org/2000/svg" xmlns:xlink="http://www.w3.org/1999/xlink" x="0px" y="0px"
	 width="140px" height="140px" viewBox="0 0 140 140" enable-background="new 0 0 140 140" xml:space="preserve">
<g>
	<path fill-rule="evenodd" clip-rule="evenodd" fill="#F16950" d="M140,70c0-38.546-31.451-70-70-70C31.438,0,0,31.453,0,70
		c0,38.559,31.438,70,70,70C108.549,140,140,108.559,140,70z"/>
	<path fill-rule="evenodd" clip-rule="evenodd" fill="#87D5F7" d="M110.619,35.261H29.382c-3.32,0-6.035,2.722-6.035,6.047v7.575
		h93.333v-7.575C116.652,37.983,113.965,35.261,110.619,35.261z"/>
	<path fill-rule="evenodd" clip-rule="evenodd" fill="#FFFFFF" d="M78.979,47.851l-3.023-4.572H59.1l-3.051,4.572H23.347v50.854
		c0,3.325,2.715,6.033,6.035,6.033h81.265c3.318,0,6.033-2.708,6.033-6.033V47.851H78.979z"/>
	<polygon fill-rule="evenodd" clip-rule="evenodd" fill="#47BEEB" points="29.556,47.824 52.473,47.824 49.449,43.278 
		32.594,43.278 	"/>
	<path fill-rule="evenodd" clip-rule="evenodd" fill="#153D55" d="M110.754,41.925c0-1.502-1.225-2.722-2.717-2.722
		c-1.504,0-2.715,1.22-2.715,2.722c0,1.487,1.211,2.708,2.715,2.708C109.529,44.633,110.754,43.413,110.754,41.925z"/>
	<path fill-rule="evenodd" clip-rule="evenodd" fill="#FFFFFF" d="M100.35,41.925c0-1.502-1.209-2.722-2.715-2.722
		c-1.492,0-2.715,1.22-2.715,2.722c0,1.487,1.223,2.708,2.715,2.708C99.141,44.633,100.35,43.413,100.35,41.925z"/>
	<g>
		<polygon fill-rule="evenodd" clip-rule="evenodd" fill="#153D55" points="39.637,76.958 39.637,72.171 56.667,64.155 
			56.667,69.315 45.43,74.492 56.667,79.814 56.667,84.976 		"/>
		<polygon fill-rule="evenodd" clip-rule="evenodd" fill="#153D55" points="74.852,60.185 79.812,60.185 65.121,92.297 
			60.188,92.297 		"/>
		<polygon fill-rule="evenodd" clip-rule="evenodd" fill="#153D55" points="100.35,72.171 100.35,76.958 83.334,84.976 
			83.334,79.787 94.557,74.465 83.334,69.29 83.334,64.128 		"/>
	</g>
</g>
<g>
</g>
<g>
</g>
<g>
</g>
<g>
</g>
<g>
</g>
<g>
</g>
<g>
</g>
<g>
</g>
<g>
</g>
<g>
</g>
<g>
</g>
<g>
</g>
<g>
</g>
<g>
</g>
<g>
</g>
</svg>
